<?xml version="1.0" standalone="no"?>
<!DOCTYPE svg PUBLIC "-//W3C//DTD SVG 20010904//EN"
 "http://www.w3.org/TR/2001/REC-SVG-20010904/DTD/svg10.dtd">
<svg version="1.0" xmlns="http://www.w3.org/2000/svg"
 width="300.000000pt" height="300.000000pt" viewBox="0 0 300.000000 300.000000"
 preserveAspectRatio="xMidYMid meet">

<g transform="translate(0.000000,300.000000) scale(0.100000,-0.100000)"
fill="#000000" stroke="none">
<path d="M635 2909 c-157 -23 -280 -84 -379 -189 -73 -78 -119 -161 -148 -267
-21 -76 -21 -97 -25 -858 -4 -797 1 -969 34 -1077 50 -171 159 -295 328 -374
141 -65 135 -65 1090 -62 l860 4 75 22 c113 35 187 79 265 157 82 81 135 174
167 292 20 76 21 95 20 908 0 902 -1 933 -56 1073 -67 169 -218 300 -413 355
-77 21 -85 22 -918 23 -462 1 -867 -2 -900 -7z m958 -454 c306 -54 557 -210
718 -446 56 -83 134 -250 159 -342 24 -87 41 -262 30 -293 -14 -37 -66 -46
-92 -16 -10 10 -18 49 -23 102 -31 377 -254 701 -588 855 -139 64 -236 87
-395 92 -210 8 -338 -17 -508 -98 -71 -33 -133 -75 -274 -186 -27 -21 -24 -15
15 26 137 144 334 255 540 301 103 23 298 25 418 5z m42 -265 c302 -82 536
-324 606 -627 29 -124 24 -320 -11 -428 -41 -127 -123 -267 -203 -343 -43 -41
-83 -41 -106 0 -14 25 -14 29 4 52 11 13 41 50 68 82 247 305 222 758 -56
1038 -146 146 -285 210 -522 242 l-100 13 120 -4 c81 -2 146 -10 200 -25z
m-337 13 c-10 -2 -26 -2 -35 0 -10 3 -2 5 17 5 19 0 27 -2 18 -5z m541 -413
c100 -105 159 -241 168 -387 7 -116 -8 -194 -56 -298 -98 -208 -268 -328 -512
-361 -88 -12 -140 45 -89 96 14 14 33 20 63 20 109 1 256 58 345 136 58 51
131 155 161 230 22 58 41 176 35 220 -26 171 -71 277 -156 363 -31 32 -43 49
-29 41 14 -7 45 -34 70 -60z m-89 -469 c-36 -214 -227 -349 -453 -319 -91 12
-197 72 -227 127 -9 18 -8 27 5 47 21 32 64 32 103 -1 17 -14 57 -37 89 -52
47 -23 72 -27 138 -28 68 0 89 4 139 29 118 58 185 154 194 280 l6 71 8 -45
c5 -27 4 -70 -2 -109z"/>
</g>
</svg>
